<svg width="24" height="23" viewBox="0 0 24 23" fill="none" xmlns="http://www.w3.org/2000/svg">
<path d="M23.4353 2.34257C23.4339 2.34755 23.4326 2.35257 23.4313 2.35762L19.1554 19.652L19.1554 19.6521C19.0334 20.1459 18.456 20.4187 17.972 20.1734L17.9719 20.1733L12.5638 17.4336C12.3327 17.3165 12.0504 17.3954 11.9135 17.6153L9.35628 21.7208L9.35607 21.7211C8.91342 22.433 7.82421 22.0923 7.82421 21.3104V16.7358C7.82421 16.5262 7.91349 16.3184 8.07826 16.1615C8.0786 16.1612 8.07894 16.1608 8.07928 16.1605L18.616 6.28973C18.7256 6.18708 18.7832 6.04061 18.773 5.8908C18.7577 5.66652 18.6323 5.46139 18.4405 5.34612C18.224 5.21606 17.9475 5.2156 17.718 5.37033L17.7156 5.37201L5.38338 13.7949L1.42193 11.7894C1.42191 11.7894 1.42189 11.7894 1.42186 11.7894C0.808624 11.4782 0.838147 10.6185 1.46718 10.3504L1.46772 10.3502L22.3027 1.43995L22.3032 1.43974C22.9373 1.16776 23.5767 1.72662 23.4353 2.34257Z" stroke="white" stroke-opacity="0.7" stroke-linejoin="round"/>
</svg>
