<svg width="34" height="19" viewBox="0 0 34 19" fill="none" xmlns="http://www.w3.org/2000/svg">
<mask id="path-1-inside-1_121_457" fill="white">
<path d="M32.9598 17.1002C32.9209 17.0167 32.8845 16.9474 32.8508 16.8919C32.2926 15.8918 31.2259 14.6642 29.6512 13.2088L29.618 13.1755L29.6013 13.1592L29.5845 13.1424H29.5676C28.8529 12.4647 28.4004 12.009 28.2109 11.7757C27.8641 11.3313 27.7864 10.8815 27.976 10.4257C28.1098 10.0813 28.6128 9.3541 29.4836 8.24296C29.9417 7.6541 30.3045 7.18214 30.5724 6.82657C32.5045 4.27127 33.3422 2.63839 33.0852 1.92731L32.9854 1.76114C32.9183 1.66109 32.7453 1.56957 32.4664 1.48611C32.1869 1.40282 31.8296 1.38905 31.394 1.44455L26.5696 1.47771C26.4915 1.45016 26.3799 1.45272 26.2345 1.48611C26.0893 1.5195 26.0166 1.53625 26.0166 1.53625L25.9327 1.57798L25.866 1.62812C25.8102 1.66127 25.7487 1.71958 25.6817 1.80293C25.615 1.88598 25.5592 1.98345 25.5146 2.09453C24.9893 3.43878 24.3921 4.68859 23.7219 5.84391C23.3087 6.53281 22.9292 7.12985 22.5826 7.63536C22.2365 8.14071 21.9461 8.51303 21.7118 8.75169C21.4771 8.99059 21.2653 9.18197 21.0751 9.32655C20.8851 9.47118 20.7402 9.53229 20.6398 9.50994C20.5391 9.48758 20.4444 9.4654 20.3547 9.44322C20.1984 9.34318 20.0728 9.20713 19.978 9.03495C19.8828 8.86276 19.8188 8.64605 19.7853 8.38497C19.7519 8.12372 19.7322 7.89901 19.7266 7.71007C19.7214 7.52137 19.7238 7.25446 19.7351 6.9101C19.7467 6.56556 19.7519 6.33244 19.7519 6.21022C19.7519 5.78799 19.7602 5.32975 19.7768 4.83538C19.7937 4.34101 19.8074 3.94931 19.8188 3.66075C19.8302 3.37189 19.8355 3.06628 19.8355 2.74409C19.8355 2.42191 19.8158 2.16924 19.7768 1.98585C19.7383 1.80269 19.6792 1.62491 19.6014 1.45255C19.523 1.28037 19.4084 1.14717 19.258 1.05262C19.1072 0.958181 18.9198 0.883237 18.6968 0.827555C18.1049 0.694303 17.3511 0.62222 16.4351 0.611014C14.3581 0.588834 13.0234 0.722261 12.4315 1.01112C12.197 1.13316 11.9848 1.29992 11.795 1.51086C11.594 1.75536 11.5659 1.88878 11.7111 1.91073C12.3812 2.0106 12.8557 2.24949 13.1349 2.62718L13.2355 2.82732C13.3138 2.97172 13.3919 3.22737 13.4702 3.59392C13.5482 3.96046 13.5987 4.36594 13.6208 4.81011C13.6766 5.62124 13.6766 6.31557 13.6208 6.89317C13.5649 7.471 13.5121 7.92084 13.4617 8.24302C13.4113 8.56521 13.336 8.82628 13.2355 9.02619C13.1349 9.22616 13.068 9.34838 13.0344 9.39274C13.0009 9.43709 12.973 9.46505 12.9508 9.47602C12.8056 9.53136 12.6547 9.55955 12.4984 9.55955C12.3419 9.55955 12.1522 9.48169 11.9289 9.32608C11.7056 9.17047 11.4739 8.95673 11.2338 8.68451C10.9936 8.41223 10.7228 8.03173 10.4212 7.54297C10.1197 7.0542 9.80702 6.47655 9.48315 5.81L9.21519 5.3266C9.04768 5.01562 8.81885 4.56281 8.52848 3.96857C8.23793 3.37411 7.98112 2.79907 7.75786 2.2436C7.66862 2.0103 7.53456 1.83269 7.3559 1.71047L7.27205 1.66034C7.21631 1.61598 7.12684 1.56887 7.00409 1.51868C6.88117 1.46854 6.75291 1.43259 6.61879 1.41047L2.02885 1.44362C1.55982 1.44362 1.24158 1.54932 1.07401 1.76043L1.00694 1.8603C0.973441 1.91592 0.956543 2.00476 0.956543 2.12704C0.956543 2.24926 0.990045 2.39926 1.05711 2.57687C1.72715 4.14344 2.45582 5.65427 3.24309 7.10959C4.03037 8.56492 4.71449 9.73722 5.29506 10.6254C5.87575 11.5143 6.46764 12.3532 7.07074 13.1418C7.67385 13.9306 8.07306 14.4361 8.26838 14.6582C8.46394 14.8807 8.61754 15.047 8.7292 15.1581L9.14806 15.558C9.41608 15.8247 9.80966 16.144 10.329 16.5161C10.8484 16.8885 11.4235 17.255 12.0544 17.6164C12.6855 17.9771 13.4197 18.2715 14.2574 18.4992C15.0949 18.7271 15.9101 18.8186 16.7031 18.7745H18.6296C19.0203 18.7409 19.3163 18.6187 19.5175 18.4078L19.5841 18.3242C19.629 18.2579 19.6709 18.1549 19.7096 18.0163C19.7488 17.8774 19.7683 17.7244 19.7683 17.558C19.7569 17.0804 19.7934 16.65 19.877 16.2667C19.9605 15.8836 20.0556 15.5948 20.1621 15.4002C20.2684 15.2059 20.3885 15.0418 20.5221 14.9089C20.656 14.7756 20.7514 14.6949 20.8073 14.6671C20.863 14.6392 20.9074 14.6202 20.9409 14.6088C21.2089 14.52 21.5243 14.606 21.8876 14.8673C22.2506 15.1284 22.5911 15.4508 22.9096 15.8339C23.2279 16.2174 23.6103 16.6476 24.0569 17.1252C24.5039 17.603 24.8946 17.9582 25.2295 18.1918L25.5644 18.3918C25.7881 18.5252 26.0785 18.6474 26.4359 18.7585C26.7927 18.8695 27.1053 18.8973 27.3737 18.8418L31.662 18.7752C32.0861 18.7752 32.4162 18.7054 32.6503 18.5667C32.8848 18.4279 33.0242 18.2749 33.0691 18.1085C33.114 17.9419 33.1164 17.7529 33.0776 17.5416C33.0379 17.3309 32.9988 17.1835 32.9598 17.1002Z"/>
</mask>
<path d="M32.9598 17.1002C32.9209 17.0167 32.8845 16.9474 32.8508 16.8919C32.2926 15.8918 31.2259 14.6642 29.6512 13.2088L29.618 13.1755L29.6013 13.1592L29.5845 13.1424H29.5676C28.8529 12.4647 28.4004 12.009 28.2109 11.7757C27.8641 11.3313 27.7864 10.8815 27.976 10.4257C28.1098 10.0813 28.6128 9.3541 29.4836 8.24296C29.9417 7.6541 30.3045 7.18214 30.5724 6.82657C32.5045 4.27127 33.3422 2.63839 33.0852 1.92731L32.9854 1.76114C32.9183 1.66109 32.7453 1.56957 32.4664 1.48611C32.1869 1.40282 31.8296 1.38905 31.394 1.44455L26.5696 1.47771C26.4915 1.45016 26.3799 1.45272 26.2345 1.48611C26.0893 1.5195 26.0166 1.53625 26.0166 1.53625L25.9327 1.57798L25.866 1.62812C25.8102 1.66127 25.7487 1.71958 25.6817 1.80293C25.615 1.88598 25.5592 1.98345 25.5146 2.09453C24.9893 3.43878 24.3921 4.68859 23.7219 5.84391C23.3087 6.53281 22.9292 7.12985 22.5826 7.63536C22.2365 8.14071 21.9461 8.51303 21.7118 8.75169C21.4771 8.99059 21.2653 9.18197 21.0751 9.32655C20.8851 9.47118 20.7402 9.53229 20.6398 9.50994C20.5391 9.48758 20.4444 9.4654 20.3547 9.44322C20.1984 9.34318 20.0728 9.20713 19.978 9.03495C19.8828 8.86276 19.8188 8.64605 19.7853 8.38497C19.7519 8.12372 19.7322 7.89901 19.7266 7.71007C19.7214 7.52137 19.7238 7.25446 19.7351 6.9101C19.7467 6.56556 19.7519 6.33244 19.7519 6.21022C19.7519 5.78799 19.7602 5.32975 19.7768 4.83538C19.7937 4.34101 19.8074 3.94931 19.8188 3.66075C19.8302 3.37189 19.8355 3.06628 19.8355 2.74409C19.8355 2.42191 19.8158 2.16924 19.7768 1.98585C19.7383 1.80269 19.6792 1.62491 19.6014 1.45255C19.523 1.28037 19.4084 1.14717 19.258 1.05262C19.1072 0.958181 18.9198 0.883237 18.6968 0.827555C18.1049 0.694303 17.3511 0.62222 16.4351 0.611014C14.3581 0.588834 13.0234 0.722261 12.4315 1.01112C12.197 1.13316 11.9848 1.29992 11.795 1.51086C11.594 1.75536 11.5659 1.88878 11.7111 1.91073C12.3812 2.0106 12.8557 2.24949 13.1349 2.62718L13.2355 2.82732C13.3138 2.97172 13.3919 3.22737 13.4702 3.59392C13.5482 3.96046 13.5987 4.36594 13.6208 4.81011C13.6766 5.62124 13.6766 6.31557 13.6208 6.89317C13.5649 7.471 13.5121 7.92084 13.4617 8.24302C13.4113 8.56521 13.336 8.82628 13.2355 9.02619C13.1349 9.22616 13.068 9.34838 13.0344 9.39274C13.0009 9.43709 12.973 9.46505 12.9508 9.47602C12.8056 9.53136 12.6547 9.55955 12.4984 9.55955C12.3419 9.55955 12.1522 9.48169 11.9289 9.32608C11.7056 9.17047 11.4739 8.95673 11.2338 8.68451C10.9936 8.41223 10.7228 8.03173 10.4212 7.54297C10.1197 7.0542 9.80702 6.47655 9.48315 5.81L9.21519 5.3266C9.04768 5.01562 8.81885 4.56281 8.52848 3.96857C8.23793 3.37411 7.98112 2.79907 7.75786 2.2436C7.66862 2.0103 7.53456 1.83269 7.3559 1.71047L7.27205 1.66034C7.21631 1.61598 7.12684 1.56887 7.00409 1.51868C6.88117 1.46854 6.75291 1.43259 6.61879 1.41047L2.02885 1.44362C1.55982 1.44362 1.24158 1.54932 1.07401 1.76043L1.00694 1.8603C0.973441 1.91592 0.956543 2.00476 0.956543 2.12704C0.956543 2.24926 0.990045 2.39926 1.05711 2.57687C1.72715 4.14344 2.45582 5.65427 3.24309 7.10959C4.03037 8.56492 4.71449 9.73722 5.29506 10.6254C5.87575 11.5143 6.46764 12.3532 7.07074 13.1418C7.67385 13.9306 8.07306 14.4361 8.26838 14.6582C8.46394 14.8807 8.61754 15.047 8.7292 15.1581L9.14806 15.558C9.41608 15.8247 9.80966 16.144 10.329 16.5161C10.8484 16.8885 11.4235 17.255 12.0544 17.6164C12.6855 17.9771 13.4197 18.2715 14.2574 18.4992C15.0949 18.7271 15.9101 18.8186 16.7031 18.7745H18.6296C19.0203 18.7409 19.3163 18.6187 19.5175 18.4078L19.5841 18.3242C19.629 18.2579 19.6709 18.1549 19.7096 18.0163C19.7488 17.8774 19.7683 17.7244 19.7683 17.558C19.7569 17.0804 19.7934 16.65 19.877 16.2667C19.9605 15.8836 20.0556 15.5948 20.1621 15.4002C20.2684 15.2059 20.3885 15.0418 20.5221 14.9089C20.656 14.7756 20.7514 14.6949 20.8073 14.6671C20.863 14.6392 20.9074 14.6202 20.9409 14.6088C21.2089 14.52 21.5243 14.606 21.8876 14.8673C22.2506 15.1284 22.5911 15.4508 22.9096 15.8339C23.2279 16.2174 23.6103 16.6476 24.0569 17.1252C24.5039 17.603 24.8946 17.9582 25.2295 18.1918L25.5644 18.3918C25.7881 18.5252 26.0785 18.6474 26.4359 18.7585C26.7927 18.8695 27.1053 18.8973 27.3737 18.8418L31.662 18.7752C32.0861 18.7752 32.4162 18.7054 32.6503 18.5667C32.8848 18.4279 33.0242 18.2749 33.0691 18.1085C33.114 17.9419 33.1164 17.7529 33.0776 17.5416C33.0379 17.3309 32.9988 17.1835 32.9598 17.1002Z" stroke="white" stroke-opacity="0.7" stroke-width="2" stroke-linejoin="round" mask="url(#path-1-inside-1_121_457)"/>
</svg>
