<svg width="24" height="24" viewBox="0 0 24 24" fill="none" xmlns="http://www.w3.org/2000/svg">
<path d="M11.7393 0.500073C11.7421 0.500073 11.7449 0.50005 11.7477 0.500003C17.9592 0.504661 22.9783 5.52658 22.9783 11.7393C22.9783 17.9548 17.9546 22.9785 11.739 22.9785C9.48411 22.9785 7.38752 22.3237 5.63738 21.1882L5.63685 21.1878C5.36534 21.0121 5.02936 20.9662 4.72058 21.0634C4.71292 21.0656 4.70529 21.0681 4.6977 21.0707L1.71189 22.1011L2.62425 19.0482C2.72194 18.7334 2.67149 18.3914 2.48738 18.1182L2.48593 18.1161C1.21358 16.2493 0.5 14.0823 0.5 11.7393C0.5 5.52385 5.52675 0.500073 11.7393 0.500073ZM8.5445 9.87235L9.42206 9.00389C9.58633 8.84132 9.61778 8.58735 9.49812 8.38962L7.36929 4.87186C7.2471 4.65482 6.98202 4.55982 6.74842 4.65304C5.82712 5.02071 5.23421 5.5539 4.87977 6.20936C4.4707 6.96555 4.39689 7.8803 4.59028 8.87238C4.97337 10.8378 6.44636 13.1734 8.29108 15.0603C10.1361 16.9477 12.4416 18.4687 14.4168 18.8781C15.4125 19.0845 16.3437 19.0256 17.1347 18.6114L16.9105 18.1833L17.1347 18.6114C17.8187 18.2533 18.3883 17.6485 18.8087 16.7024C18.9098 16.4748 18.828 16.2074 18.6167 16.0754L15.1683 13.9202C14.9708 13.7968 14.7144 13.826 14.5497 13.9906L13.6071 14.9332C13.6069 14.9334 13.6068 14.9336 13.6066 14.9338C13.5809 14.9588 13.543 14.9654 13.5108 14.951L13.5092 14.9503C11.3928 14.0175 9.85268 12.2892 8.52232 9.9856C8.50274 9.95162 8.50844 9.90891 8.53574 9.88139C8.5387 9.87841 8.54162 9.87539 8.5445 9.87235Z" stroke="white" stroke-opacity="0.7" stroke-linejoin="round"/>
</svg>
