<svg width="21" height="14" viewBox="0 0 21 14" fill="none" xmlns="http://www.w3.org/2000/svg">
<path d="M20.7544 6.33205L15.5043 0.379485C15.0698 -0.0745712 14.3734 -0.117803 13.9162 0.231714C13.4589 0.581231 13.3836 1.28762 13.7582 1.71455L17.4967 5.94936L1.12508 5.94936C0.503824 5.94936 -2.80618e-07 6.41978 -3.05975e-07 6.99989C-3.31332e-07 7.57999 0.503805 8.05041 1.12508 8.05041L17.4967 8.05041L13.7582 12.2852C13.3839 12.7122 13.4681 13.4085 13.9162 13.7681C14.3784 14.1388 15.1299 14.0472 15.5042 13.6203L20.7544 7.66773C21.0963 7.21904 21.067 6.7667 20.7544 6.33264L20.7544 6.33205Z" fill="white"/>
</svg>
