<svg width="14" height="14" viewBox="0 0 14 14" fill="none" xmlns="http://www.w3.org/2000/svg">
<path d="M0.915759 1.34623L1.34648 0.915502H0.592576L6.62319 6.94623C6.83863 7.16168 7.18313 7.16168 7.37709 6.94623C9.38004 4.94324 11.4047 2.91857 13.4077 0.915502H12.6538C12.8046 1.06634 12.9338 1.19555 13.0845 1.34623V0.592312L7.05391 6.62304C6.83846 6.83849 6.83846 7.183 7.05391 7.37696L13.0845 13.4077V12.6538C12.9337 12.8046 12.8045 12.9338 12.6538 13.0845H13.4077L7.37709 7.05377C7.16165 6.83832 6.81714 6.83832 6.62319 7.05377L0.592576 13.0845H1.34648L0.915759 12.6538V13.4077C2.91871 11.4047 4.94335 9.38002 6.94637 7.37696C7.16181 7.16151 7.16181 6.817 6.94637 6.62304L0.915759 0.592312C0.420426 0.0969688 -0.333439 0.872356 0.161856 1.34623C2.1648 3.34922 4.18944 5.37389 6.19247 7.37696V6.62304C4.18952 8.62603 2.16488 10.6507 0.161856 12.6538C-0.0535846 12.8692 -0.0535846 13.2137 0.161856 13.4077L0.592576 13.8384C0.808016 14.0539 1.15252 14.0539 1.34648 13.8384L7.37709 7.80769H6.62319C8.62613 9.81067 10.6508 11.8354 12.6538 13.8384C12.8692 14.0539 13.2137 14.0539 13.4077 13.8384L13.8384 13.4077C14.0539 13.1922 14.0539 12.8477 13.8384 12.6538L7.80781 6.62304V7.37696L13.8384 1.34623C14.0539 1.13078 14.0539 0.786272 13.8384 0.592312C13.6876 0.44147 13.5584 0.312267 13.4077 0.161584C13.1923 -0.0538612 12.8478 -0.0538612 12.6538 0.161584C10.6509 2.16457 8.62621 4.18925 6.62319 6.19231H7.37709L1.34648 0.161584C1.13104 -0.0538612 0.786532 -0.0538612 0.592576 0.161584L0.161856 0.592312C-0.333323 1.06615 0.420415 1.82007 0.915759 1.34623Z" fill="white"/>
</svg>
