<svg width="40" height="40" viewBox="0 0 40 40" fill="none" xmlns="http://www.w3.org/2000/svg">
<rect width="40" height="40" rx="7" transform="matrix(-1 0 0 1 40 0)" fill="#8153FF" fill-opacity="0.5"/>
<path d="M17.561 24.9999C17.5537 24.9999 17.5463 24.9999 17.5389 24.9997C17.3086 24.9936 17.0901 24.8955 16.9323 24.7269L12.2348 19.7128C11.9077 19.3639 11.9245 18.8146 12.2717 18.4859C12.6189 18.1576 13.1655 18.1741 13.4926 18.523L17.5923 22.8995L25.5389 15.2414C25.8826 14.9099 26.4298 14.921 26.7597 15.2673C27.0898 15.6133 27.0784 16.1626 26.734 16.4943L18.1582 24.7589C17.9974 24.9138 17.783 25 17.5607 25L17.561 24.9999Z" fill="white"/>
</svg>
