<svg width="11" height="9" viewBox="0 0 11 9" fill="none" xmlns="http://www.w3.org/2000/svg">
<path d="M3.52691 6.09193L9.34753 0.2713C9.5284 0.0904331 9.75859 0 10.0381 0C10.3176 0 10.5478 0.0904331 10.7287 0.2713C10.9096 0.452167 11 0.682361 11 0.961883C11 1.2414 10.9096 1.4716 10.7287 1.65247L4.21749 8.16368C4.02018 8.36099 3.78998 8.45964 3.52691 8.45964C3.26383 8.45964 3.03363 8.36099 2.83632 8.16368L0.2713 5.59865C0.0904331 5.41779 0 5.18759 0 4.90807C0 4.62855 0.0904331 4.39835 0.2713 4.21749C0.452167 4.03662 0.682362 3.94619 0.961883 3.94619C1.2414 3.94619 1.4716 4.03662 1.65247 4.21749L3.52691 6.09193Z" fill="#946DFF"/>
</svg>
