<svg width="15" height="8" viewBox="0 0 15 8" fill="none" xmlns="http://www.w3.org/2000/svg">
<path d="M0.125911 0.135669C0.0459204 0.21564 0.00064467 0.324418 1.81007e-05 0.438146C-0.00102713 0.552092 0.0444593 0.661604 0.125911 0.740622L7.1953 7.8735C7.27446 7.95442 7.38236 8 7.49508 8C7.60779 8 7.7157 7.95442 7.79485 7.8735L14.8656 0.740623C14.9495 0.661388 14.9981 0.551137 14.9999 0.435175C15.0018 0.319119 14.9571 0.20739 14.8757 0.125298C14.7945 0.0433192 14.6836 -0.00194027 14.5687 6.38155e-05C14.4538 0.00196291 14.3445 0.0509169 14.266 0.135637L7.49507 6.96601L0.725748 0.135636C0.646387 0.0550298 0.538478 0.00976759 0.425868 0.00976759C0.31336 0.00976759 0.205451 0.0550298 0.126096 0.135636L0.125911 0.135669Z" fill="white"/>
</svg>
